PathFileType	4	(X/Y/Z)	S01_0001_Static_markers.trc
DataRate	CameraRate	NumFrames	NumMarkers	Units	OrigDataRate	OrigDataStartFrame	OrigNumFrames
250.000000	250.000000	4	62	mm	250.000000	12	102
Frame#	Time	HEAD_ANT			R_HEAD			L_HEAD			C7			R_BACK			L_BACK			STERNUM			R_ACROMION			R_HUM_PROX			R_HUM_ANT			R_HUM_POST			R_ELBOW_LAT			R_ELBOW_MED			R_FOREARM			R_WIRST_LAT			R_WRITS_MED			R_HAND			L_ACROMION			L_HUM_PROX			L_HUM_ANT			L_HUM_POST			L_ELBOW_LAT			L_ELBOW_MED			L_FOREARM			L_WRIST_LAT			L_WIRST_MED			L_HAND			R_ILIAC			SACRUM			L_ILIAC			R_GTROCH			R_THIGH__1			R_THIGH_2			R_THIGH_3			R_THIGH_4			R_KNEE_LAT			R_KNEE_MED			R_SHANK_1			R_SHANK_2			R_SHANK_3			R_SHANK_4			R_ANKLE_LAT			R_ANKLE_MED			R_HEEL			R_FOOT_LAT			R_FOOT_MED			L_GTROCH			L_THIGH_1			L_THIGH_2			L_THIGH_3			L_THIGH_4			L_KNEE_LAT			L_KNEE_MED			L_SHANK_1			L_SHANK_2			L_SHANK_3			L_SHANK_4			L_ANKLE_LAT			L_ANKLE_MED			L_HEEL			L_FOOT_LAT			L_FOOT_MED			
		X1	Y1	Z1	X2	Y2	Z2	X3	Y3	Z3	X4	Y4	Z4	X5	Y5	Z5	X6	Y6	Z6	X7	Y7	Z7	X8	Y8	Z8	X9	Y9	Z9	X10	Y10	Z10	X11	Y11	Z11	X12	Y12	Z12	X13	Y13	Z13	X14	Y14	Z14	X15	Y15	Z15	X16	Y16	Z16	X17	Y17	Z17	X18	Y18	Z18	X19	Y19	Z19	X20	Y20	Z20	X21	Y21	Z21	X22	Y22	Z22	X23	Y23	Z23	X24	Y24	Z24	X25	Y25	Z25	X26	Y26	Z26	X27	Y27	Z27	X28	Y28	Z28	X29	Y29	Z29	X30	Y30	Z30	X31	Y31	Z31	X32	Y32	Z32	X33	Y33	Z33	X34	Y34	Z34	X35	Y35	Z35	X36	Y36	Z36	X37	Y37	Z37	X38	Y38	Z38	X39	Y39	Z39	X40	Y40	Z40	X41	Y41	Z41	X42	Y42	Z42	X43	Y43	Z43	X44	Y44	Z44	X45	Y45	Z45	X46	Y46	Z46	X47	Y47	Z47	X48	Y48	Z48	X49	Y49	Z49	X50	Y50	Z50	X51	Y51	Z51	X52	Y52	Z52	X53	Y53	Z53	X54	Y54	Z54	X55	Y55	Z55	X56	Y56	Z56	X57	Y57	Z57	X58	Y58	Z58	X59	Y59	Z59	X60	Y60	Z60	X61	Y61	Z61	X62	Y62	Z62	

13	0.048	438.5805969238281	451.2052307128906	1740.144653320312	509.6630554199219	383.5816345214844	1699.074340820312	363.3185729980469	395.4107360839844	1700.3232421875	425.6706237792969	242.7558135986328	1534.059814453125	493.2198791503906	168.9302520751953	1337.4326171875	352.5966796875	173.4382476806641	1338.414184570312	439.0289306640625	420.1945495605469	1373.206665039062	597.9588012695312	308.0094299316406	1492.978881835938	704.0645141601562	263.1876525878906	1350.940673828125	735.2362060546875	327.4738159179688	1273.636962890625	721.8932495117188	205.2653503417969	1266.752685546875	758.9340209960938	255.7435455322266	1170.111938476562	679.1663208007812	251.3754425048828	1148.616943359375	828.5903930664062	348.2179565429688	997.53759765625	821.434326171875	395.3155212402344	930.7951049804688	833.3822021484375	319.5451354980469	906.3701171875	881.1976318359375	382.18115234375	848.6134033203125	264.7096557617188	323.5171203613281	1493.289428710938	162.6880645751953	293.69189453125	1333.803955078125	148.1357116699219	359.0704040527344	1257.579467773438	140.8305816650391	236.9683532714844	1255.528930664062	113.6940689086914	288.2842102050781	1157.381103515625	181.5222930908203	260.2648010253906	1146.79052734375	68.21562194824219	392.0307312011719	987.0025634765625	95.25389099121094	440.0482177734375	920.4857177734375	53.89218902587891	373.5371398925781	905.9034423828125	32.36007308959961	445.4716186523438	849.7291870117188	604.733154296875	319.9940490722656	1081.99365234375	434.5756225585938	188.3098449707031	1061.413940429688	258.8062438964844	316.8207702636719	1076.189453125	613.7144775390625	265.1614685058594	942.0386962890625	617.0966796875	273.2336120605469	664.0928955078125	622.6387939453125	330.8538818359375	674.3951416015625	595.6172485351562	326.3316040039062	570.4811401367188	601.6464233398438	262.353759765625	583.5576782226562	589.4974975585938	299.9663696289062	508.8776245117188	478.3946838378906	302.115478515625	506.8524169921875	621.9258422851562	239.1519165039062	353.3698425292969	607.71337890625	294.7821044921875	332.03662109375	593.7244262695312	291.9822387695312	246.6505584716797	603.0891723632812	227.8465423583984	252.8799133300781	581.6300659179688	252.9770812988281	65.98104095458984	496.1098937988281	275.1802978515625	80.85035705566406	527.7439575195312	194.15283203125	41.936279296875	628.8170166015625	352.2488098144531	19.94753837585449	532.5317993164062	415.0473937988281	30.16175651550293	254.3063507080078	270.8565368652344	965.4195556640625	251.16455078125	322.6726684570312	674.6642456054688	238.5145416259766	270.56689453125	701.0319213867188	264.7937316894531	247.3150634765625	600.8523559570312	270.4950866699219	310.4465026855469	596.004638671875	282.7147216796875	268.2887268066406	514.2734375	390.1652221679688	273.1468811035156	501.5647888183594	255.6862487792969	248.958251953125	338.9887084960938	258.158935546875	191.6173553466797	318.0676574707031	268.2191772460938	191.5550079345703	231.1291656494141	269.2655029296875	255.7930908203125	236.8518829345703	276.3420104980469	217.1036834716797	69.16770935058594	360.9817504882812	243.58642578125	79.51090240478516	329.2317504882812	160.9032135009766	41.08919143676758	233.6090087890625	328.0694580078125	19.16534233093262	335.5764770507812	376.640625	27.14930725097656	
14	0.052	438.5895690917969	451.2608337402344	1740.098876953125	509.6408081054688	383.5753479003906	1699.080322265625	363.3455200195312	395.4853210449219	1700.322998046875	425.6661987304688	242.7372589111328	1534.103393554688	493.2499389648438	168.9694213867188	1337.380615234375	352.6058959960938	173.4381256103516	1338.4111328125	439.0813293457031	420.2494201660156	1373.245239257812	597.993408203125	308.0526733398438	1492.98876953125	704.0634155273438	263.2345275878906	1350.9248046875	735.2395629882812	327.4964904785156	1273.646606445312	721.9044189453125	205.3085174560547	1266.765991210938	758.9388427734375	255.8015899658203	1170.110961914062	679.154541015625	251.3582916259766	1148.550537109375	828.6115112304688	348.2362670898438	997.56298828125	821.394287109375	395.3597717285156	930.7767944335938	833.4136962890625	319.5680847167969	906.360107421875	881.189453125	382.24072265625	848.618408203125	264.707275390625	323.5033569335938	1493.291015625	162.72802734375	293.6565551757812	1333.772827148438	148.1706085205078	359.0486145019531	1257.53662109375	140.8854217529297	236.9472503662109	1255.499877929688	113.7774124145508	288.2367858886719	1157.3662109375	181.6045989990234	260.2091369628906	1146.790405273438	68.2784423828125	391.9144287109375	986.9224243164062	95.03908538818359	440.1573791503906	920.5314331054688	53.9356575012207	373.4635314941406	905.8357543945312	32.40329742431641	445.3504333496094	849.717529296875	604.78466796875	320.0055541992188	1081.979858398438	434.5928649902344	188.3106231689453	1061.450561523438	258.8305358886719	316.7552795410156	1076.178588867188	613.7655639648438	265.1526184082031	942.1343994140625	617.1095581054688	273.2059326171875	664.1046142578125	622.6588745117188	330.874267578125	674.4014282226562	595.6265258789062	326.2576599121094	570.4619750976562	601.6459350585938	262.3246154785156	583.5284423828125	589.505859375	299.9327392578125	508.9055786132812	478.4727478027344	301.9663391113281	506.8451538085938	621.9376220703125	239.1443176269531	353.33203125	607.7122802734375	294.7295532226562	332.0311889648438	593.7581176757812	291.9271850585938	246.6374969482422	603.1144409179688	227.7655487060547	252.9598388671875	581.6524658203125	252.9582214355469	65.94078826904297	496.0849609375	275.1468505859375	80.84999847412109	527.7347412109375	194.1493682861328	41.92951202392578	628.8092651367188	352.2241821289062	19.94573974609375	532.558837890625	415.0291137695312	30.16729164123535	254.3311767578125	270.856201171875	965.4210205078125	251.2175445556641	322.6760864257812	674.6386108398438	238.5422058105469	270.5369567871094	701.0130615234375	264.7914123535156	247.3251342773438	600.8743286132812	270.487060546875	310.4389038085938	595.983154296875	282.7608337402344	268.2509460449219	514.2063598632812	390.1768188476562	273.1410217285156	501.5692443847656	255.6652526855469	248.9752502441406	338.98583984375	258.1635437011719	191.6287994384766	318.0370178222656	268.2230834960938	191.5576171875	231.1340026855469	269.2874755859375	255.8134155273438	236.8333587646484	276.3240661621094	217.1041259765625	69.16013336181641	360.960205078125	243.5456695556641	79.51828002929688	329.2149353027344	160.8764495849609	41.10122680664062	233.604248046875	328.0563049316406	19.17678642272949	335.5950012207031	376.6554260253906	27.15239906311035	
15	0.056	438.640625	451.2579650878906	1740.086303710938	509.619140625	383.6552124023438	1699.069458007812	363.2994079589844	395.5043640136719	1700.333984375	425.7209167480469	242.7716674804688	1534.059936523438	493.2681274414062	169.1241760253906	1337.380249023438	352.6603088378906	173.4473266601562	1338.432983398438	439.0932312011719	420.2608032226562	1373.217041015625	597.9935913085938	308.0177307128906	1493.003173828125	704.0752563476562	263.2738952636719	1350.93408203125	735.2484741210938	327.5354614257812	1273.6396484375	721.9091796875	205.3809204101562	1266.719482421875	758.924560546875	255.8662567138672	1170.101440429688	679.176513671875	251.3424072265625	1148.552612304688	828.5839233398438	348.3262329101562	997.5551147460938	821.4031982421875	395.4143676757812	930.7996215820312	833.3832397460938	319.591552734375	906.4036254882812	881.1824951171875	382.2839965820312	848.6151733398438	264.7237854003906	323.4961242675781	1493.264404296875	162.5427093505859	293.6397705078125	1333.984375	148.1824645996094	359.0039672851562	1257.517822265625	140.9446563720703	236.9427032470703	1255.426513671875	113.8380126953125	288.1745910644531	1157.332397460938	181.6895446777344	260.1546936035156	1146.78857421875	68.31298828125	391.8338623046875	986.8793334960938	95.41505432128906	439.840087890625	920.2903442382812	53.99579238891602	373.3433532714844	905.8047485351562	32.50308990478516	445.2471008300781	849.51220703125	604.8084106445312	320.0055847167969	1081.973022460938	434.606201171875	188.3084716796875	1061.473022460938	258.844970703125	316.8998413085938	1076.182983398438	613.7593994140625	265.1114807128906	942.1453857421875	617.1492309570312	273.1229858398438	664.0856323242188	622.696533203125	330.8407592773438	674.4000244140625	595.6591186523438	326.2359924316406	570.541259765625	601.6476440429688	262.2678527832031	583.53857421875	589.4920654296875	299.9319458007812	508.8603820800781	478.4371948242188	302.1139831542969	506.8561096191406	621.9599609375	239.1182098388672	353.3653564453125	607.736328125	294.7298889160156	332.0465393066406	593.7409057617188	291.9581298828125	246.6376037597656	603.1452026367188	227.7981414794922	252.8894958496094	581.6458129882812	252.9443206787109	65.94155883789062	496.0989990234375	275.1081848144531	80.85007476806641	527.7612915039062	194.1400146484375	41.90898132324219	628.8154296875	352.2398071289062	19.95174217224121	532.54052734375	415.0407409667969	30.17228126525879	254.3433532714844	270.8572387695312	965.4297485351562	251.2103729248047	322.6810302734375	674.6227416992188	238.5813903808594	270.5479125976562	701.008544921875	264.8189086914062	247.3185272216797	600.8893432617188	270.5791015625	310.4841003417969	595.8746337890625	282.7492980957031	268.2222595214844	514.1925659179688	390.1898803710938	273.1645812988281	501.5733032226562	255.6841278076172	249.0028228759766	339.005859375	258.1635131835938	191.6321716308594	318.0799865722656	268.2372131347656	191.5633850097656	231.1093292236328	269.2958374023438	255.7728576660156	236.8462524414062	276.3516235351562	217.1089477539062	69.14437866210938	360.9870910644531	243.5661773681641	79.51226043701172	329.2311706542969	160.9044036865234	41.08725738525391	233.6169586181641	328.0613098144531	19.15994644165039	335.60791015625	376.6723937988281	27.12594795227051	
16	0.06	438.5947265625	451.3046569824219	1740.0615234375	509.6405334472656	383.6722106933594	1699.05712890625	363.3209533691406	395.5396118164062	1700.3154296875	425.7275390625	242.7700805664062	1534.045532226562	493.2987976074219	169.072265625	1337.382446289062	352.7125854492188	173.4566497802734	1338.402954101562	439.1328125	420.2671813964844	1373.309814453125	597.9963989257812	308.076904296875	1493.010498046875	704.100830078125	263.31298828125	1350.939086914062	735.2647094726562	327.5766296386719	1273.68994140625	721.9158325195312	205.4431915283203	1266.746704101562	758.94482421875	255.8902435302734	1170.121948242188	679.1582641601562	251.4492492675781	1148.626342773438	828.5700073242188	348.3931884765625	997.5360717773438	821.3969116210938	395.4598999023438	930.799560546875	833.3624267578125	319.6710205078125	906.3410034179688	881.1795654296875	382.3545227050781	848.607666015625	264.7173156738281	323.4785766601562	1493.2509765625	162.5665283203125	293.6094055175781	1333.944580078125	148.2039642333984	358.9766235351562	1257.47265625	141.0081176757812	236.8900146484375	1255.40234375	113.8879241943359	288.1384582519531	1157.285522460938	181.7520446777344	260.149658203125	1146.732421875	68.34197235107422	391.6775817871094	986.7894897460938	95.17182922363281	439.8927917480469	920.389404296875	54.06771469116211	373.2601928710938	905.7479858398438	32.50049591064453	445.0481567382812	849.5025024414062	604.8096923828125	319.9897766113281	1081.959228515625	434.6100463867188	188.3110504150391	1061.498046875	258.8646240234375	316.8112487792969	1076.151123046875	613.160888671875	265.3702697753906	941.934814453125	617.1382446289062	273.0734252929688	664.0752563476562	622.671142578125	330.8228149414062	674.37353515625	595.6438598632812	326.1895751953125	570.4834594726562	601.6422729492188	262.2620239257812	583.5191040039062	589.5125732421875	299.8922119140625	508.8934631347656	478.4151611328125	302.0645141601562	506.8699035644531	621.9165649414062	239.0796661376953	353.3408508300781	607.6976318359375	294.7215576171875	332.0195922851562	593.71337890625	291.9336242675781	246.6502380371094	603.2028198242188	227.7290802001953	252.9802856445312	581.64990234375	252.9493560791016	65.94282531738281	496.0716552734375	275.1054992675781	80.89015197753906	527.7455444335938	194.1482543945312	41.90203475952148	628.8223876953125	352.2348327636719	19.9438419342041	532.5361938476562	415.0399780273438	30.17306137084961	254.3523864746094	270.8708801269531	965.4217529296875	251.2624664306641	322.6772155761719	674.6123657226562	238.5754547119141	270.5468139648438	701.0097045898438	264.8345947265625	247.314697265625	600.8485717773438	270.6007995605469	310.4788208007812	595.864990234375	282.7760620117188	268.3034362792969	514.2067260742188	390.2137145996094	273.1129150390625	501.5630187988281	255.6890869140625	248.99951171875	338.976806640625	258.1204528808594	191.6559295654297	318.0871276855469	268.234619140625	191.5404968261719	231.1375427246094	269.285400390625	255.8014678955078	236.8155517578125	276.3536987304688	217.1107940673828	69.16250610351562	360.9787902832031	243.5480346679688	79.5078125	329.2345275878906	160.8939361572266	41.07740020751953	233.6327667236328	328.0489501953125	19.12822723388672	335.6235656738281	376.66162109375	27.12731742858887	
